<svg width="127" height="27" viewBox="0 0 127 27" fill="none" xmlns="http://www.w3.org/2000/svg">
<path d="M0.476 0.799998H6.344C8.384 0.799998 9.872 1.28 10.808 2.24C11.744 3.176 12.212 4.628 12.212 6.596V8.144C12.212 10.76 11.348 12.416 9.62 13.112V13.184C10.58 13.472 11.252 14.06 11.636 14.948C12.044 15.836 12.248 17.024 12.248 18.512V22.94C12.248 23.66 12.272 24.248 12.32 24.704C12.368 25.136 12.488 25.568 12.68 26H8.648C8.504 25.592 8.408 25.208 8.36 24.848C8.312 24.488 8.288 23.84 8.288 22.904V18.296C8.288 17.144 8.096 16.34 7.712 15.884C7.352 15.428 6.716 15.2 5.804 15.2H4.436V26H0.476V0.799998ZM5.876 11.6C6.668 11.6 7.256 11.396 7.64 10.988C8.048 10.58 8.252 9.896 8.252 8.936V6.992C8.252 6.08 8.084 5.42 7.748 5.012C7.436 4.604 6.932 4.4 6.236 4.4H4.436V11.6H5.876ZM20.7195 26.36C18.7755 26.36 17.2875 25.808 16.2555 24.704C15.2235 23.6 14.7075 22.04 14.7075 20.024V6.776C14.7075 4.76 15.2235 3.2 16.2555 2.096C17.2875 0.991999 18.7755 0.439999 20.7195 0.439999C22.6635 0.439999 24.1515 0.991999 25.1835 2.096C26.2155 3.2 26.7315 4.76 26.7315 6.776V20.024C26.7315 22.04 26.2155 23.6 25.1835 24.704C24.1515 25.808 22.6635 26.36 20.7195 26.36ZM20.7195 22.76C22.0875 22.76 22.7715 21.932 22.7715 20.276V6.524C22.7715 4.868 22.0875 4.04 20.7195 4.04C19.3515 4.04 18.6675 4.868 18.6675 6.524V20.276C18.6675 21.932 19.3515 22.76 20.7195 22.76ZM29.4096 0.799998H33.3696V11.42L38.4096 0.799998H42.3696L37.6536 10.052L42.4416 26H38.3016L34.9536 14.768L33.3696 17.972V26H29.4096V0.799998ZM49.2178 26.36C47.2978 26.36 45.8458 25.82 44.8618 24.74C43.8778 23.636 43.3858 22.064 43.3858 20.024V18.584H47.1298V20.312C47.1298 21.944 47.8138 22.76 49.1818 22.76C49.8538 22.76 50.3578 22.568 50.6938 22.184C51.0538 21.776 51.2338 21.128 51.2338 20.24C51.2338 19.184 50.9938 18.26 50.5138 17.468C50.0338 16.652 49.1458 15.68 47.8498 14.552C46.2178 13.112 45.0778 11.816 44.4298 10.664C43.7818 9.488 43.4578 8.168 43.4578 6.704C43.4578 4.712 43.9618 3.176 44.9697 2.096C45.9778 0.991999 47.4418 0.439999 49.3618 0.439999C51.2578 0.439999 52.6858 0.991999 53.6458 2.096C54.6298 3.176 55.1218 4.736 55.1218 6.776V7.82H51.3778V6.524C51.3778 5.66 51.2098 5.036 50.8738 4.652C50.5378 4.244 50.0458 4.04 49.3978 4.04C48.0778 4.04 47.4178 4.844 47.4178 6.452C47.4178 7.364 47.6578 8.216 48.1378 9.008C48.6418 9.8 49.5418 10.76 50.8378 11.888C52.4938 13.328 53.6338 14.636 54.2578 15.812C54.8818 16.988 55.1938 18.368 55.1938 19.952C55.1938 22.016 54.6778 23.6 53.6458 24.704C52.6378 25.808 51.1618 26.36 49.2178 26.36ZM63.1883 26.36C61.2443 26.36 59.7563 25.808 58.7243 24.704C57.6923 23.6 57.1763 22.04 57.1763 20.024V6.776C57.1763 4.76 57.6923 3.2 58.7243 2.096C59.7563 0.991999 61.2443 0.439999 63.1883 0.439999C65.1323 0.439999 66.6203 0.991999 67.6523 2.096C68.6843 3.2 69.2003 4.76 69.2003 6.776V20.024C69.2003 22.04 68.6843 23.6 67.6523 24.704C66.6203 25.808 65.1323 26.36 63.1883 26.36ZM63.1883 22.76C64.5563 22.76 65.2403 21.932 65.2403 20.276V6.524C65.2403 4.868 64.5563 4.04 63.1883 4.04C61.8203 4.04 61.1363 4.868 61.1363 6.524V20.276C61.1363 21.932 61.8203 22.76 63.1883 22.76ZM71.8783 0.799998H75.8383V22.4H82.3543V26H71.8783V0.799998ZM87.454 0.799998H92.818L96.922 26H92.962L92.242 20.996V21.068H87.742L87.022 26H83.35L87.454 0.799998ZM91.774 17.648L90.01 5.192H89.938L88.21 17.648H91.774ZM98.8432 0.799998H103.811L107.663 15.884H107.735V0.799998H111.263V26H107.195L102.443 7.604H102.371V26H98.8432V0.799998ZM117.266 0.799998H122.63L126.734 26H122.774L122.054 20.996V21.068H117.554L116.834 26H113.162L117.266 0.799998ZM121.586 17.648L119.822 5.192H119.75L118.022 17.648H121.586Z" fill="#1A0A03"/>
</svg>
