<svg width="23" height="21" viewBox="0 0 23 21" fill="none" xmlns="http://www.w3.org/2000/svg">
<path d="M10.3179 0.938891C10.6259 0.0351911 11.9039 0.0351911 12.2109 0.938891L14.1799 6.72132C14.3169 7.12659 14.6979 7.3991 15.1259 7.3991H21.3929C22.3729 7.3991 22.7679 8.66235 21.9629 9.22085L16.9739 12.6808C16.6069 12.9352 16.4539 13.402 16.5969 13.8247L18.5219 19.4778C18.8319 20.391 17.7979 21.1715 17.0049 20.6217L11.8349 17.0358C11.4919 16.7981 11.0379 16.7981 10.6949 17.0358L5.52391 20.6217C4.73191 21.1715 3.69691 20.391 4.00791 19.4778L5.9319 13.8247C6.0759 13.402 5.92191 12.9352 5.5549 12.6808L0.566303 9.22085C-0.238997 8.66235 0.156204 7.3991 1.1362 7.3991H7.4029C7.8309 7.3991 8.2119 7.12659 8.3499 6.72132L10.3179 0.938891Z" fill="#FFA858"/>
</svg>
