<svg width="21" height="21" viewBox="0 0 21 21" fill="none" xmlns="http://www.w3.org/2000/svg">
<g clip-path="url(#clip0_14731_35)">
<path d="M10.0139 0.96875C4.60391 0.96875 0.217285 5.35341 0.217285 10.761C0.217285 14.7697 2.63146 18.2146 6.08215 19.7314C6.05591 19.0494 6.07778 18.2276 6.25272 17.4844C6.44077 16.6888 7.51229 12.1468 7.51229 12.1468C7.51229 12.1468 7.19739 11.5217 7.19739 10.5993C7.19739 9.14791 8.03711 8.06377 9.08675 8.06377C9.97894 8.06377 10.4076 8.73262 10.4076 9.53261C10.4076 10.4288 9.83461 11.7664 9.54158 13.0079C9.29667 14.0484 10.062 14.8921 11.0898 14.8921C12.9442 14.8921 14.195 12.5097 14.195 9.68562C14.195 7.53919 12.7474 5.93483 10.1189 5.93483C7.14929 5.93483 5.29492 8.1512 5.29492 10.6255C5.29492 11.478 5.54858 12.0813 5.94219 12.5447C6.1215 12.7589 6.14775 12.8463 6.08215 13.0911C6.03404 13.2703 5.92908 13.703 5.88097 13.8779C5.81537 14.1271 5.61419 14.2146 5.39114 14.1228C4.02223 13.5632 3.3837 12.0681 3.3837 10.3807C3.3837 7.60039 5.73226 4.2649 10.3857 4.2649C14.125 4.2649 16.5873 6.97088 16.5873 9.87359C16.5873 13.7162 14.4487 16.584 11.2997 16.584C10.2414 16.584 9.24856 16.0113 8.90742 15.3643C8.90742 15.3643 8.33887 17.6199 8.21641 18.0571C8.01085 18.8134 7.60413 19.5654 7.23238 20.1555C8.13415 20.4214 9.06937 20.5569 10.0095 20.5576C15.4196 20.5576 19.8062 16.173 19.8062 10.7654C19.8062 5.35778 15.424 0.96875 10.0139 0.96875Z" fill="#274C5B"/>
</g>
<defs>
<clipPath id="clip0_14731_35">
<rect width="20" height="20" fill="white" transform="translate(0.217285 0.96875)"/>
</clipPath>
</defs>
</svg>
