<svg width="21" height="20" viewBox="0 0 21 20" fill="none" xmlns="http://www.w3.org/2000/svg">
<g clip-path="url(#clip0_14731_30)">
<path d="M13.8758 2.516C14.9404 2.51906 15.9604 2.92764 16.7131 3.65251C17.4659 4.37738 17.8902 5.35963 17.8934 6.38474V14.1215C17.8902 15.1466 17.4659 16.1287 16.7131 16.8537C15.9604 17.5786 14.9404 17.9871 13.8758 17.9902H5.84159C4.77705 17.9871 3.75701 17.5786 3.00427 16.8537C2.25152 16.1287 1.82723 15.1466 1.82405 14.1215V6.38474C1.82723 5.35963 2.25152 4.37738 3.00427 3.65251C3.75701 2.92764 4.77705 2.51906 5.84159 2.516H13.8758ZM13.8758 0.96875H5.84159C2.74816 0.96875 0.217285 3.40588 0.217285 6.38474V14.1215C0.217285 17.1003 2.74816 19.5373 5.84159 19.5373H13.8758C16.9693 19.5373 19.5001 17.1003 19.5001 14.1215V6.38474C19.5001 3.40588 16.9693 0.96875 13.8758 0.96875Z" fill="#274C5B"/>
<path d="M15.0806 6.38505C14.8422 6.38505 14.6092 6.31698 14.411 6.18946C14.2129 6.06194 14.0584 5.88069 13.9672 5.66863C13.876 5.45656 13.8521 5.22322 13.8986 4.9981C13.9451 4.77297 14.0599 4.56618 14.2284 4.40388C14.397 4.24158 14.6117 4.13104 14.8455 4.08626C15.0793 4.04149 15.3216 4.06447 15.5418 4.15231C15.762 4.24014 15.9502 4.38889 16.0827 4.57974C16.2151 4.77059 16.2858 4.99497 16.2858 5.22451C16.2861 5.377 16.2552 5.52806 16.1947 5.66901C16.1343 5.80996 16.0455 5.93803 15.9336 6.04586C15.8216 6.15369 15.6886 6.23917 15.5422 6.29737C15.3958 6.35558 15.239 6.38537 15.0806 6.38505ZM9.8583 7.15846C10.494 7.15846 11.1154 7.33998 11.6439 7.68005C12.1724 8.02012 12.5844 8.50348 12.8276 9.06901C13.0709 9.63453 13.1345 10.2568 13.0105 10.8572C12.8865 11.4575 12.5804 12.0089 12.1309 12.4418C11.6814 12.8746 11.1088 13.1694 10.4853 13.2888C9.86186 13.4082 9.21565 13.3469 8.62838 13.1127C8.0411 12.8784 7.53915 12.4817 7.186 11.9728C6.83285 11.4638 6.64435 10.8655 6.64435 10.2534C6.64526 9.43282 6.98417 8.64613 7.5867 8.06591C8.18924 7.48569 9.00619 7.15934 9.8583 7.15846ZM9.8583 5.61121C8.90485 5.61121 7.97282 5.88347 7.18006 6.39356C6.3873 6.90365 5.76942 7.62865 5.40455 8.4769C5.03968 9.32514 4.94422 10.2585 5.13022 11.159C5.31623 12.0595 5.77536 12.8866 6.44955 13.5358C7.12373 14.185 7.9827 14.6272 8.91783 14.8063C9.85295 14.9854 10.8223 14.8935 11.7031 14.5421C12.584 14.1908 13.3369 13.5958 13.8666 12.8324C14.3963 12.069 14.679 11.1715 14.679 10.2534C14.679 9.0222 14.1711 7.84145 13.2671 6.97087C12.363 6.1003 11.1369 5.61121 9.8583 5.61121Z" fill="#274C5B"/>
</g>
<defs>
<clipPath id="clip0_14731_30">
<rect width="20" height="19" fill="white" transform="translate(0.217285 0.96875)"/>
</clipPath>
</defs>
</svg>
