<svg width="226" height="56" viewBox="0 0 226 56" fill="none" xmlns="http://www.w3.org/2000/svg">
<g clip-path="url(#clip0_14731_38)">
<path d="M2.5166 41.7231H22.1369H41.7573" stroke="#7EB693" stroke-width="2" stroke-miterlimit="10"/>
<path d="M6.94971 48.1548H22.1372H37.3247" stroke="#7EB693" stroke-width="2" stroke-miterlimit="10"/>
<path d="M21.5742 1.15479V8.15479V15.1548" stroke="#7EB693" stroke-width="2" stroke-miterlimit="10"/>
<path d="M21.6582 14.439V40.8706" stroke="#7EB693" stroke-width="2" stroke-miterlimit="10"/>
<path d="M34.1004 4.20752L21.6582 15.2918" stroke="#7EB693" stroke-width="2" stroke-miterlimit="10"/>
<path d="M38.8858 8.4707L21.6582 23.8181" stroke="#7EB693" stroke-width="2" stroke-miterlimit="10"/>
<path d="M41.7571 15.2915L21.6582 32.3442" stroke="#7EB693" stroke-width="2" stroke-miterlimit="10"/>
<path d="M42.7142 22.9653L21.6582 41.7232" stroke="#7EB693" stroke-width="2" stroke-miterlimit="10"/>
<path d="M42.7146 31.4917L31.2295 41.7233" stroke="#7EB693" stroke-width="2" stroke-miterlimit="10"/>
<path d="M1.55957 31.4917L13.0447 41.7233" stroke="#7EB693" stroke-width="2" stroke-miterlimit="10"/>
<path d="M10.1733 4.20752L21.6584 15.2918" stroke="#7EB693" stroke-width="2" stroke-miterlimit="10"/>
<path d="M5.3877 8.4707L21.6582 23.8181" stroke="#7EB693" stroke-width="2" stroke-miterlimit="10"/>
<path d="M2.5166 14.439L21.6584 32.3443" stroke="#7EB693" stroke-width="2" stroke-miterlimit="10"/>
<path d="M1.55957 22.1128L21.6585 40.8707" stroke="#7EB693" stroke-width="2" stroke-miterlimit="10"/>
<path d="M22.1369 54.5127C10.7735 54.5127 1.55957 46.0604 1.55957 35.632V19.6775C1.55957 9.25107 10.7735 0.796875 22.1369 0.796875C33.5025 0.796875 42.7144 9.25107 42.7144 19.6775V35.632C42.7165 46.0604 33.5025 54.5127 22.1369 54.5127Z" stroke="#7EB693" stroke-width="2" stroke-miterlimit="10"/>
</g>
<defs>
<clipPath id="clip0_14731_38">
<rect width="225" height="56" fill="white" transform="translate(0.43457 -0.203125)"/>
</clipPath>
</defs>
</svg>
