<svg width="21" height="18" viewBox="0 0 21 18" fill="none" xmlns="http://www.w3.org/2000/svg">
<path d="M20.8775 2.92717C20.1025 3.26391 19.2825 3.48576 18.4434 3.58571C19.3252 3.06937 19.9884 2.24907 20.3085 1.27866C19.4748 1.76615 18.5642 2.1082 17.6157 2.29015C17.2164 1.87158 16.736 1.53859 16.2039 1.31143C15.6719 1.08428 15.0991 0.967688 14.5206 0.968757C12.1782 0.968757 10.2827 2.83678 10.2827 5.13953C10.281 5.45983 10.3177 5.77918 10.392 6.09076C8.71235 6.01202 7.06765 5.58354 5.5631 4.83275C4.05855 4.08195 2.72728 3.02537 1.65446 1.7306C1.27809 2.36509 1.07904 3.08903 1.07813 3.82675C1.07813 5.27296 1.83266 6.55131 2.97198 7.30024C2.29696 7.28422 1.63578 7.10556 1.04455 6.77943V6.83108C1.04455 8.85405 2.50799 10.537 4.44488 10.9201C4.08065 11.0171 3.70532 11.0663 3.32837 11.0665C3.06089 11.0668 2.79402 11.0409 2.53166 10.9889C3.07012 12.646 4.63728 13.8512 6.49368 13.8856C4.98522 15.0482 3.13322 15.6765 1.22878 15.672C0.890728 15.6715 0.552998 15.6513 0.217285 15.6117C2.15469 16.8488 4.40676 17.5031 6.70544 17.4968C14.5116 17.4968 18.7762 11.1395 18.7762 5.6259C18.7762 5.44513 18.7714 5.26435 18.7628 5.08788C19.5906 4.49909 20.3066 3.7674 20.8775 2.92717Z" fill="#274C5B"/>
</svg>
